<mxfile host="app.diagrams.net" modified="2023-09-25T18:03:43.996Z" agent="Mozilla/5.0 (Windows NT 10.0; Win64; x64) AppleWebKit/537.36 (KHTML, like Gecko) Chrome/117.0.0.0 Safari/537.36 Edg/117.0.2045.36" etag="TWJuDrPwFxsWChjK0ANe" version="21.8.2" type="google">
  <diagram name="Page-1" id="c4acf3e9-155e-7222-9cf6-157b1a14988f">
    <mxGraphModel dx="2946" dy="653" grid="1" gridSize="10" guides="1" tooltips="1" connect="1" arrows="1" fold="1" page="1" pageScale="1" pageWidth="850" pageHeight="1100" background="none" math="0" shadow="0">
      <root>
        <mxCell id="0" />
        <mxCell id="1" parent="0" />
        <mxCell id="M8q9TsFmmqJ-js2aoNwE-6" value="" style="group" vertex="1" connectable="0" parent="1">
          <mxGeometry x="-1610" y="142" width="690" height="816" as="geometry" />
        </mxCell>
        <mxCell id="17acba5748e5396b-20" value="Review" style="swimlane;html=1;fontStyle=0;childLayout=stackLayout;horizontal=1;startSize=26;fillColor=none;horizontalStack=0;resizeParent=1;resizeLast=0;collapsible=1;marginBottom=0;swimlaneFillColor=#ffffff;rounded=0;shadow=0;comic=0;labelBackgroundColor=none;strokeWidth=1;fontFamily=Verdana;fontSize=10;align=center;" parent="M8q9TsFmmqJ-js2aoNwE-6" vertex="1">
          <mxGeometry x="347.48201438848923" y="27.692307692307693" width="208.48920863309354" height="256.61538461538464" as="geometry" />
        </mxCell>
        <mxCell id="17acba5748e5396b-21" value="- reviewerId: string" style="text;html=1;strokeColor=none;fillColor=none;align=left;verticalAlign=top;spacingLeft=4;spacingRight=4;whiteSpace=wrap;overflow=hidden;rotatable=0;points=[[0,0.5],[1,0.5]];portConstraint=eastwest;" parent="17acba5748e5396b-20" vertex="1">
          <mxGeometry y="26" width="208.48920863309354" height="24" as="geometry" />
        </mxCell>
        <mxCell id="HdKPJbry58FBYRkkMzXx-6" value="- reviewId: string" style="text;html=1;strokeColor=none;fillColor=none;align=left;verticalAlign=top;spacingLeft=4;spacingRight=4;whiteSpace=wrap;overflow=hidden;rotatable=0;points=[[0,0.5],[1,0.5]];portConstraint=eastwest;" parent="17acba5748e5396b-20" vertex="1">
          <mxGeometry y="50" width="208.48920863309354" height="24" as="geometry" />
        </mxCell>
        <mxCell id="17acba5748e5396b-24" value="- reviewerName: string" style="text;html=1;strokeColor=none;fillColor=none;align=left;verticalAlign=top;spacingLeft=4;spacingRight=4;whiteSpace=wrap;overflow=hidden;rotatable=0;points=[[0,0.5],[1,0.5]];portConstraint=eastwest;" parent="17acba5748e5396b-20" vertex="1">
          <mxGeometry y="74" width="208.48920863309354" height="24" as="geometry" />
        </mxCell>
        <mxCell id="17acba5748e5396b-26" value="- experience: string&lt;br&gt;-" style="text;html=1;strokeColor=none;fillColor=none;align=left;verticalAlign=top;spacingLeft=4;spacingRight=4;whiteSpace=wrap;overflow=hidden;rotatable=0;points=[[0,0.5],[1,0.5]];portConstraint=eastwest;" parent="17acba5748e5396b-20" vertex="1">
          <mxGeometry y="98" width="208.48920863309354" height="24" as="geometry" />
        </mxCell>
        <mxCell id="HdKPJbry58FBYRkkMzXx-3" value="- comments: string" style="text;html=1;strokeColor=none;fillColor=none;align=left;verticalAlign=top;spacingLeft=4;spacingRight=4;whiteSpace=wrap;overflow=hidden;rotatable=0;points=[[0,0.5],[1,0.5]];portConstraint=eastwest;" parent="17acba5748e5396b-20" vertex="1">
          <mxGeometry y="122" width="208.48920863309354" height="27.692307692307693" as="geometry" />
        </mxCell>
        <mxCell id="HdKPJbry58FBYRkkMzXx-5" value="" style="line;strokeWidth=1;rotatable=0;dashed=0;labelPosition=right;align=left;verticalAlign=middle;spacingTop=0;spacingLeft=6;points=[];portConstraint=eastwest;" parent="17acba5748e5396b-20" vertex="1">
          <mxGeometry y="149.69230769230768" width="208.48920863309354" height="9.230769230769232" as="geometry" />
        </mxCell>
        <mxCell id="HdKPJbry58FBYRkkMzXx-7" value="+ showReviews(): string&lt;br&gt;+ saveReview(): void" style="text;html=1;strokeColor=none;fillColor=none;align=left;verticalAlign=top;spacingLeft=4;spacingRight=4;whiteSpace=wrap;overflow=hidden;rotatable=0;points=[[0,0.5],[1,0.5]];portConstraint=eastwest;" parent="17acba5748e5396b-20" vertex="1">
          <mxGeometry y="158.9230769230769" width="208.48920863309354" height="27.692307692307693" as="geometry" />
        </mxCell>
        <mxCell id="HdKPJbry58FBYRkkMzXx-9" value="+ addComment(comment,reviewId): void" style="text;html=1;strokeColor=none;fillColor=none;align=left;verticalAlign=top;spacingLeft=4;spacingRight=4;whiteSpace=wrap;overflow=hidden;rotatable=0;points=[[0,0.5],[1,0.5]];portConstraint=eastwest;" parent="17acba5748e5396b-20" vertex="1">
          <mxGeometry y="186.61538461538458" width="208.48920863309354" height="27.692307692307693" as="geometry" />
        </mxCell>
        <mxCell id="HdKPJbry58FBYRkkMzXx-10" value="+ viewComments(reviewId): string" style="text;html=1;strokeColor=none;fillColor=none;align=left;verticalAlign=top;spacingLeft=4;spacingRight=4;whiteSpace=wrap;overflow=hidden;rotatable=0;points=[[0,0.5],[1,0.5]];portConstraint=eastwest;" parent="17acba5748e5396b-20" vertex="1">
          <mxGeometry y="214.30769230769226" width="208.48920863309354" height="27.692307692307693" as="geometry" />
        </mxCell>
        <mxCell id="17acba5748e5396b-30" value="RoomSearch" style="swimlane;html=1;fontStyle=0;childLayout=stackLayout;horizontal=1;startSize=26;fillColor=none;horizontalStack=0;resizeParent=1;resizeLast=0;collapsible=1;marginBottom=0;swimlaneFillColor=#ffffff;rounded=0;shadow=0;comic=0;labelBackgroundColor=none;strokeWidth=1;fontFamily=Verdana;fontSize=10;align=center;" parent="M8q9TsFmmqJ-js2aoNwE-6" vertex="1">
          <mxGeometry x="426.9064748201439" y="318.46153846153845" width="158.84892086330936" height="158.9230769230769" as="geometry" />
        </mxCell>
        <mxCell id="17acba5748e5396b-31" value="-userId: string" style="text;html=1;strokeColor=none;fillColor=none;align=left;verticalAlign=top;spacingLeft=4;spacingRight=4;whiteSpace=wrap;overflow=hidden;rotatable=0;points=[[0,0.5],[1,0.5]];portConstraint=eastwest;" parent="17acba5748e5396b-30" vertex="1">
          <mxGeometry y="26" width="158.84892086330936" height="24" as="geometry" />
        </mxCell>
        <mxCell id="17acba5748e5396b-32" value="-checkInDate: DATE" style="text;html=1;strokeColor=none;fillColor=none;align=left;verticalAlign=top;spacingLeft=4;spacingRight=4;whiteSpace=wrap;overflow=hidden;rotatable=0;points=[[0,0.5],[1,0.5]];portConstraint=eastwest;" parent="17acba5748e5396b-30" vertex="1">
          <mxGeometry y="50" width="158.84892086330936" height="24" as="geometry" />
        </mxCell>
        <mxCell id="17acba5748e5396b-33" value="-checkOutDate: DATE" style="text;html=1;strokeColor=none;fillColor=none;align=left;verticalAlign=top;spacingLeft=4;spacingRight=4;whiteSpace=wrap;overflow=hidden;rotatable=0;points=[[0,0.5],[1,0.5]];portConstraint=eastwest;" parent="17acba5748e5396b-30" vertex="1">
          <mxGeometry y="74" width="158.84892086330936" height="24" as="geometry" />
        </mxCell>
        <mxCell id="HdKPJbry58FBYRkkMzXx-14" value="" style="line;strokeWidth=1;rotatable=0;dashed=0;labelPosition=right;align=left;verticalAlign=middle;spacingTop=0;spacingLeft=6;points=[];portConstraint=eastwest;" parent="17acba5748e5396b-30" vertex="1">
          <mxGeometry y="98" width="158.84892086330936" height="9.230769230769232" as="geometry" />
        </mxCell>
        <mxCell id="HdKPJbry58FBYRkkMzXx-15" value="+searchRoom()&lt;br&gt;+viewRoom(id)&lt;br&gt;+bookRoom(id)" style="text;html=1;strokeColor=none;fillColor=none;align=left;verticalAlign=top;spacingLeft=4;spacingRight=4;whiteSpace=wrap;overflow=hidden;rotatable=0;points=[[0,0.5],[1,0.5]];portConstraint=eastwest;" parent="17acba5748e5396b-30" vertex="1">
          <mxGeometry y="107.23076923076923" width="158.84892086330936" height="51.69230769230769" as="geometry" />
        </mxCell>
        <mxCell id="74Z9YKGE02pyJSJ20Z6V-7" value="" style="endArrow=none;html=1;rounded=0;" edge="1" parent="17acba5748e5396b-30">
          <mxGeometry width="50" height="50" relative="1" as="geometry">
            <mxPoint x="69.49640287769785" y="187.3846153846154" as="sourcePoint" />
            <mxPoint x="69.49640287769785" y="159.6923076923077" as="targetPoint" />
          </mxGeometry>
        </mxCell>
        <mxCell id="5d2195bd80daf111-15" value="&lt;p style=&quot;margin:0px;margin-top:4px;text-align:center;&quot;&gt;&lt;i&gt;Property&lt;/i&gt;&lt;/p&gt;&lt;hr size=&quot;1&quot;&gt;&lt;p style=&quot;margin:0px;margin-left:4px;&quot;&gt; -id: int&lt;/p&gt;&lt;p style=&quot;margin:0px;margin-left:4px;&quot;&gt;-type: string&amp;nbsp;&lt;/p&gt;&lt;p style=&quot;margin:0px;margin-left:4px;&quot;&gt;-location: string&amp;nbsp;&lt;/p&gt;&lt;p style=&quot;margin:0px;margin-left:4px;&quot;&gt;-price: double&amp;nbsp;&lt;/p&gt;&lt;p style=&quot;margin:0px;margin-left:4px;&quot;&gt;-amenities: List&amp;lt;string&amp;gt;&amp;nbsp;&lt;/p&gt;&lt;p style=&quot;margin:0px;margin-left:4px;&quot;&gt;-owner: PropertyOwner &lt;br&gt;&lt;/p&gt;&lt;hr size=&quot;1&quot;&gt;&lt;p style=&quot;margin:0px;margin-left:4px;&quot;&gt;+getDescription(): string &lt;br&gt;&lt;/p&gt;" style="verticalAlign=top;align=left;overflow=fill;fontSize=12;fontFamily=Helvetica;html=1;rounded=0;shadow=0;comic=0;labelBackgroundColor=none;strokeWidth=1" parent="M8q9TsFmmqJ-js2aoNwE-6" vertex="1">
          <mxGeometry x="436.8345323741007" y="504" width="188.63309352517987" height="147.6923076923077" as="geometry" />
        </mxCell>
        <mxCell id="5d2195bd80daf111-18" value="&lt;p style=&quot;margin:0px;margin-top:4px;text-align:center;&quot;&gt;&lt;i&gt;User&lt;/i&gt;&lt;/p&gt;&lt;hr size=&quot;1&quot;&gt;&lt;p style=&quot;margin:0px;margin-left:4px;&quot;&gt;- userName: string&lt;br&gt;- userId: string&lt;/p&gt;&lt;p style=&quot;margin:0px;margin-left:4px;&quot;&gt;- userAge: string&lt;/p&gt;&lt;p style=&quot;margin:0px;margin-left:4px;&quot;&gt;- userType: string&lt;/p&gt;&lt;p style=&quot;margin:0px;margin-left:4px;&quot;&gt;- userAddress: string&lt;/p&gt;&lt;p style=&quot;margin:0px;margin-left:4px;&quot;&gt;- userEmail: string&lt;/p&gt;&lt;p style=&quot;margin:0px;margin-left:4px;&quot;&gt;- userPhoneNumber: string&lt;/p&gt;&lt;p style=&quot;margin:0px;margin-left:4px;&quot;&gt;- password: string&lt;/p&gt;&lt;hr size=&quot;1&quot;&gt;&lt;p style=&quot;margin:0px;margin-left:4px;&quot;&gt;+ User()&lt;br&gt;&lt;/p&gt;" style="verticalAlign=top;align=left;overflow=fill;fontSize=12;fontFamily=Helvetica;html=1;rounded=0;shadow=0;comic=0;labelBackgroundColor=none;strokeWidth=1" parent="M8q9TsFmmqJ-js2aoNwE-6" vertex="1">
          <mxGeometry x="69.49640287769785" y="69.23076923076924" width="188.63309352517987" height="187.3846153846154" as="geometry" />
        </mxCell>
        <mxCell id="alprreKKrc1qYEOiYAPb-7" value="&lt;p style=&quot;margin:0px;margin-top:4px;text-align:center;&quot;&gt;&lt;/p&gt;&lt;span style=&quot;white-space: pre;&quot;&gt;&#x9;&lt;/span&gt;&lt;span style=&quot;white-space: pre;&quot;&gt;&#x9;&lt;/span&gt;Preferences     &lt;hr size=&quot;1&quot;&gt;&lt;p style=&quot;margin:0px;margin-left:4px;&quot;&gt;-location: string&lt;/p&gt;&lt;p style=&quot;margin:0px;margin-left:4px;&quot;&gt;-budget: double&amp;nbsp;&lt;/p&gt;&lt;p style=&quot;margin:0px;margin-left:4px;&quot;&gt;-amenities: List&amp;lt;string&amp;gt; &lt;br&gt;&lt;/p&gt;&lt;hr size=&quot;1&quot;&gt;&lt;p style=&quot;margin:0px;margin-left:4px;&quot;&gt;+setLocation(location): void&amp;nbsp;&lt;/p&gt;&lt;p style=&quot;margin:0px;margin-left:4px;&quot;&gt;+setBudget(budget): void&amp;nbsp;&lt;/p&gt;&lt;p style=&quot;margin:0px;margin-left:4px;&quot;&gt;+setAmenities(amenities): void &lt;br&gt;&lt;/p&gt;" style="verticalAlign=top;align=left;overflow=fill;fontSize=12;fontFamily=Helvetica;html=1;rounded=0;shadow=0;comic=0;labelBackgroundColor=none;strokeWidth=1" parent="M8q9TsFmmqJ-js2aoNwE-6" vertex="1">
          <mxGeometry x="501.36690647482015" y="694.1538461538462" width="188.63309352517987" height="121.84615384615385" as="geometry" />
        </mxCell>
        <mxCell id="alprreKKrc1qYEOiYAPb-5" value="&lt;font style=&quot;font-size: 8px;&quot;&gt;1...&lt;/font&gt;" style="text;html=1;align=center;verticalAlign=middle;resizable=0;points=[];autosize=1;strokeColor=none;fillColor=none;" parent="M8q9TsFmmqJ-js2aoNwE-6" vertex="1">
          <mxGeometry x="456.6906474820144" y="681.2307692307693" width="30" height="30" as="geometry" />
        </mxCell>
        <mxCell id="HdKPJbry58FBYRkkMzXx-23" value="1..*" style="text;html=1;align=center;verticalAlign=middle;resizable=0;points=[];autosize=1;strokeColor=none;fillColor=none;" parent="M8q9TsFmmqJ-js2aoNwE-6" vertex="1">
          <mxGeometry x="317.6978417266187" width="40" height="30" as="geometry" />
        </mxCell>
        <mxCell id="HdKPJbry58FBYRkkMzXx-25" value="1..*" style="text;html=1;align=center;verticalAlign=middle;resizable=0;points=[];autosize=1;strokeColor=none;fillColor=none;" parent="M8q9TsFmmqJ-js2aoNwE-6" vertex="1">
          <mxGeometry x="342.5179856115108" y="339.69230769230774" width="40" height="30" as="geometry" />
        </mxCell>
        <mxCell id="M8q9TsFmmqJ-js2aoNwE-3" value="" style="endArrow=none;html=1;rounded=0;" edge="1" parent="M8q9TsFmmqJ-js2aoNwE-6">
          <mxGeometry width="50" height="50" relative="1" as="geometry">
            <mxPoint x="327.62589928057554" y="579.6923076923077" as="sourcePoint" />
            <mxPoint x="496.40287769784175" y="745.8461538461539" as="targetPoint" />
            <Array as="points">
              <mxPoint x="327.62589928057554" y="745.8461538461539" />
            </Array>
          </mxGeometry>
        </mxCell>
        <mxCell id="M8q9TsFmmqJ-js2aoNwE-4" value="" style="group" vertex="1" connectable="0" parent="M8q9TsFmmqJ-js2aoNwE-6">
          <mxGeometry x="129.06474820143885" y="376.61538461538464" width="218.41726618705036" height="319.3846153846154" as="geometry" />
        </mxCell>
        <mxCell id="alprreKKrc1qYEOiYAPb-2" value="&lt;p style=&quot;margin:0px;margin-top:4px;text-align:center;&quot;&gt;&lt;i&gt;PropertyOwner&lt;/i&gt;&lt;/p&gt;&lt;hr size=&quot;1&quot;&gt;&lt;p style=&quot;margin:0px;margin-left:4px;&quot;&gt;-id: int&amp;nbsp;&lt;/p&gt;&lt;p style=&quot;margin:0px;margin-left:4px;&quot;&gt;-username: string&amp;nbsp;&lt;/p&gt;&lt;p style=&quot;margin:0px;margin-left:4px;&quot;&gt;-password: string&amp;nbsp;&lt;/p&gt;&lt;p style=&quot;margin:0px;margin-left:4px;&quot;&gt;-email: string&amp;nbsp;&lt;/p&gt;&lt;p style=&quot;margin:0px;margin-left:4px;&quot;&gt;-properties: List&amp;lt;Property&amp;gt;&lt;br&gt;&lt;/p&gt;&lt;hr size=&quot;1&quot;&gt;&lt;p style=&quot;margin:0px;margin-left:4px;&quot;&gt; +createListing(details): void&amp;nbsp;&lt;/p&gt;&lt;p style=&quot;margin:0px;margin-left:4px;&quot;&gt;+editListing(listing): void&amp;nbsp;&lt;/p&gt;&lt;p style=&quot;margin:0px;margin-left:4px;&quot;&gt;+removeListing(listing): void&lt;br&gt;&lt;/p&gt;" style="verticalAlign=top;align=left;overflow=fill;fontSize=12;fontFamily=Helvetica;html=1;rounded=0;shadow=0;comic=0;labelBackgroundColor=none;strokeWidth=1" parent="M8q9TsFmmqJ-js2aoNwE-4" vertex="1">
          <mxGeometry x="5.956834532374101" y="3.6923076923076925" width="188.63309352517987" height="155.0769230769231" as="geometry" />
        </mxCell>
        <mxCell id="alprreKKrc1qYEOiYAPb-4" value="1" style="text;html=1;align=center;verticalAlign=middle;resizable=0;points=[];autosize=1;strokeColor=none;fillColor=none;" parent="M8q9TsFmmqJ-js2aoNwE-4" vertex="1">
          <mxGeometry x="188.63309352517987" width="30" height="30" as="geometry" />
        </mxCell>
        <mxCell id="alprreKKrc1qYEOiYAPb-17" value="&lt;p style=&quot;margin:0px;margin-top:4px;text-align:center;&quot;&gt;&lt;/p&gt;&lt;span style=&quot;&quot;&gt;&lt;span style=&quot;&quot;&gt;&amp;nbsp;&amp;nbsp;&amp;nbsp;&amp;nbsp;&lt;/span&gt;&lt;/span&gt;&lt;span style=&quot;&quot;&gt;&lt;span style=&quot;&quot;&gt;&amp;nbsp;&amp;nbsp;&amp;nbsp;&amp;nbsp;&lt;/span&gt;&lt;/span&gt;Accommodation&lt;hr size=&quot;1&quot;&gt;&lt;p style=&quot;margin:0px;margin-left:4px;&quot;&gt;-id: int&amp;nbsp;&lt;/p&gt;&lt;p style=&quot;margin:0px;margin-left:4px;&quot;&gt;-type: string&amp;nbsp;&lt;/p&gt;&lt;p style=&quot;margin:0px;margin-left:4px;&quot;&gt;-location: string&amp;nbsp;&lt;/p&gt;&lt;p style=&quot;margin:0px;margin-left:4px;&quot;&gt;-price: double&amp;nbsp;&lt;/p&gt;&lt;p style=&quot;margin:0px;margin-left:4px;&quot;&gt;-amenities: List&amp;lt;string&amp;gt; &lt;br&gt;&lt;/p&gt;&lt;hr size=&quot;1&quot;&gt;&lt;p style=&quot;margin:0px;margin-left:4px;&quot;&gt;+getDescription(): string&lt;br&gt;&lt;/p&gt;" style="verticalAlign=top;align=left;overflow=fill;fontSize=12;fontFamily=Helvetica;html=1;rounded=0;shadow=0;comic=0;labelBackgroundColor=none;strokeWidth=1;container=1;" parent="M8q9TsFmmqJ-js2aoNwE-4" vertex="1">
          <mxGeometry y="190.15384615384616" width="188.63309352517987" height="129.23076923076923" as="geometry" />
        </mxCell>
        <mxCell id="M8q9TsFmmqJ-js2aoNwE-5" value="" style="endArrow=none;html=1;rounded=0;exitX=0.994;exitY=0.129;exitDx=0;exitDy=0;exitPerimeter=0;" edge="1" parent="alprreKKrc1qYEOiYAPb-17" source="alprreKKrc1qYEOiYAPb-17">
          <mxGeometry width="50" height="50" relative="1" as="geometry">
            <mxPoint x="178.70503597122303" y="68.3076923076923" as="sourcePoint" />
            <mxPoint x="198.5611510791367" y="16.615384615384613" as="targetPoint" />
          </mxGeometry>
        </mxCell>
        <mxCell id="74Z9YKGE02pyJSJ20Z6V-1" value="" style="endArrow=none;html=1;rounded=0;" edge="1" parent="M8q9TsFmmqJ-js2aoNwE-6">
          <mxGeometry width="50" height="50" relative="1" as="geometry">
            <mxPoint x="258.1294964028777" y="127.38461538461539" as="sourcePoint" />
            <mxPoint x="387.19424460431657" y="25.846153846153847" as="targetPoint" />
            <Array as="points">
              <mxPoint x="317.6978417266187" y="127.38461538461539" />
              <mxPoint x="317.6978417266187" y="44.30769230769231" />
              <mxPoint x="317.6978417266187" y="25.846153846153847" />
              <mxPoint x="387.19424460431657" y="25.846153846153847" />
            </Array>
          </mxGeometry>
        </mxCell>
        <mxCell id="74Z9YKGE02pyJSJ20Z6V-3" value="" style="endArrow=none;html=1;rounded=0;" edge="1" parent="M8q9TsFmmqJ-js2aoNwE-6">
          <mxGeometry width="50" height="50" relative="1" as="geometry">
            <mxPoint x="138.9928057553957" y="385.84615384615387" as="sourcePoint" />
            <mxPoint x="69.49640287769785" y="81.23076923076924" as="targetPoint" />
            <Array as="points">
              <mxPoint y="385.84615384615387" />
              <mxPoint y="182.76923076923077" />
              <mxPoint y="99.6923076923077" />
              <mxPoint y="81.23076923076924" />
              <mxPoint x="69.49640287769785" y="81.23076923076924" />
            </Array>
          </mxGeometry>
        </mxCell>
        <mxCell id="74Z9YKGE02pyJSJ20Z6V-5" value="" style="endArrow=none;html=1;rounded=0;exitX=-0.015;exitY=-0.023;exitDx=0;exitDy=0;exitPerimeter=0;" edge="1" parent="M8q9TsFmmqJ-js2aoNwE-6" source="17acba5748e5396b-32">
          <mxGeometry width="50" height="50" relative="1" as="geometry">
            <mxPoint x="248.20143884892087" y="376.61538461538464" as="sourcePoint" />
            <mxPoint x="208.48920863309354" y="284.3076923076923" as="targetPoint" />
            <Array as="points">
              <mxPoint x="248.20143884892087" y="367.3846153846154" />
              <mxPoint x="248.20143884892087" y="293.53846153846155" />
              <mxPoint x="208.48920863309354" y="293.53846153846155" />
              <mxPoint x="208.48920863309354" y="256.61538461538464" />
            </Array>
          </mxGeometry>
        </mxCell>
        <mxCell id="74Z9YKGE02pyJSJ20Z6V-8" value="" style="endArrow=none;html=1;rounded=0;entryX=1;entryY=1;entryDx=0;entryDy=0;exitX=0.014;exitY=0.106;exitDx=0;exitDy=0;exitPerimeter=0;" edge="1" parent="M8q9TsFmmqJ-js2aoNwE-6" source="alprreKKrc1qYEOiYAPb-7" target="alprreKKrc1qYEOiYAPb-2">
          <mxGeometry width="50" height="50" relative="1" as="geometry">
            <mxPoint x="387.19424460431657" y="727.3846153846155" as="sourcePoint" />
            <mxPoint x="387.19424460431657" y="496.61538461538464" as="targetPoint" />
            <Array as="points">
              <mxPoint x="387.19424460431657" y="708.9230769230769" />
              <mxPoint x="387.19424460431657" y="535.3846153846154" />
            </Array>
          </mxGeometry>
        </mxCell>
      </root>
    </mxGraphModel>
  </diagram>
</mxfile>
